<?xml version="1.0" encoding="UTF-8" standalone="no"?>
<!-- Created with Inkscape (http://www.inkscape.org/) -->

<svg
   xmlns:dc="http://purl.org/dc/elements/1.1/"
   xmlns:cc="http://creativecommons.org/ns#"
   xmlns:rdf="http://www.w3.org/1999/02/22-rdf-syntax-ns#"
   xmlns:svg="http://www.w3.org/2000/svg"
   xmlns="http://www.w3.org/2000/svg"
   xmlns:sodipodi="http://sodipodi.sourceforge.net/DTD/sodipodi-0.dtd"
   xmlns:inkscape="http://www.inkscape.org/namespaces/inkscape"
   width="12.298418mm"
   height="12.300277mm"
   viewBox="0 0 12.298418 12.300276"
   version="1.1"
   id="svg8"
   inkscape:version="0.92.3 (2405546, 2018-03-11)"
   sodipodi:docname="Translation Handle.svg">
  <defs
     id="defs2" />
  <sodipodi:namedview
     id="base"
     pagecolor="#ffffff"
     bordercolor="#666666"
     borderopacity="1.0"
     inkscape:pageopacity="0.0"
     inkscape:pageshadow="2"
     inkscape:zoom="7.9195959"
     inkscape:cx="27.566113"
     inkscape:cy="22.001639"
     inkscape:document-units="mm"
     inkscape:current-layer="g771"
     showgrid="false"
     fit-margin-top="0"
     fit-margin-left="0"
     fit-margin-right="0"
     fit-margin-bottom="0"
     inkscape:window-width="1600"
     inkscape:window-height="838"
     inkscape:window-x="-8"
     inkscape:window-y="-8"
     inkscape:window-maximized="1" />
  <metadata
     id="metadata5">
    <rdf:RDF>
      <cc:Work
         rdf:about="">
        <dc:format>image/svg+xml</dc:format>
        <dc:type
           rdf:resource="http://purl.org/dc/dcmitype/StillImage" />
        <dc:title></dc:title>
      </cc:Work>
    </rdf:RDF>
  </metadata>
  <g
     inkscape:label="Layer 1"
     inkscape:groupmode="layer"
     id="layer1"
     transform="translate(62.562504,-76.446681)">
    <g
       transform="matrix(0.51341872,0,0,0.51341872,482.13242,-263.33306)"
       id="g771">
      <path
         style="fill:#e2e2e2;stroke:#000000;stroke-width:1.03067267;stroke-miterlimit:4;stroke-dasharray:none;stroke-opacity:1"
         inkscape:connector-curvature="0"
         d="m -1048.9391,685.24075 c -0.1737,0 -0.3446,-0.034 -0.5084,-0.10203 -0.1593,-0.0662 -0.3025,-0.16199 -0.4251,-0.28192 l -3.3839,-3.38215 c -0.2506,-0.24971 -0.3885,-0.58354 -0.3885,-0.93795 0,-0.35442 0.1379,-0.68825 0.3885,-0.93795 0.2514,-0.25059 0.5844,-0.38932 0.9388,-0.38932 0.3544,0 0.6873,0.13783 0.937,0.38932 l 1.1134,1.11337 v -5.60709 h -5.6053 l 1.1134,1.11336 c 0.5173,0.51641 0.5173,1.35948 0,1.87589 -0.2515,0.2506 -0.5845,0.38932 -0.938,0.38932 -0.3544,0 -0.6882,-0.13783 -0.9379,-0.38932 l -3.3777,-3.37678 c -0.1235,-0.12351 -0.2202,-0.2676 -0.2864,-0.4287 -0.046,-0.1074 -0.058,-0.2148 -0.069,-0.30072 l -0.012,-0.0421 -0.022,-0.16826 c 0,-0.0707 0.016,-0.12888 0.026,-0.16288 0.019,-0.13246 0.032,-0.24076 0.077,-0.34905 0.067,-0.1602 0.1638,-0.30429 0.2864,-0.4278 l 3.3777,-3.37679 c 0.2497,-0.25059 0.5826,-0.38932 0.937,-0.38932 0.3544,0 0.6883,0.13783 0.9389,0.38843 0.5182,0.5173 0.5182,1.36038 0,1.87678 l -1.1134,1.11337 h 5.6053 v -5.6062 l -1.1134,1.11337 c -0.2514,0.25059 -0.5844,0.38932 -0.9388,0.38932 -0.3544,0 -0.6873,-0.13783 -0.937,-0.38932 -0.2506,-0.2497 -0.3885,-0.58353 -0.3885,-0.93795 0,-0.35441 0.1379,-0.68824 0.3885,-0.93794 l 3.3785,-3.37858 c 0.2524,-0.25149 0.5853,-0.38932 0.938,-0.38932 0.3535,0 0.6864,0.13694 0.9361,0.38753 l 3.3804,3.38037 c 0.2506,0.2497 0.3884,0.58353 0.3884,0.93794 0,0.35442 -0.1378,0.68825 -0.3884,0.93795 -0.2506,0.25059 -0.5835,0.38932 -0.938,0.38932 -0.3535,0 -0.6864,-0.13783 -0.9379,-0.38843 l -1.1143,-1.11426 v 5.6062 h 5.6053 l -1.1133,-1.11337 c -0.5173,-0.5164 -0.5173,-1.35948 0,-1.87589 0.2515,-0.25059 0.5844,-0.38932 0.9388,-0.38932 0.3544,0 0.6874,0.13783 0.9371,0.38932 l 3.3768,3.37589 c 0.1235,0.12262 0.221,0.2676 0.2881,0.4296 l 0.016,0.0385 0.022,0.11814 c 0.036,0.13246 0.064,0.23359 0.064,0.35352 0,0.11993 -0.029,0.22016 -0.052,0.30071 l -0.01,0.0412 -0.046,0.16736 c -0.068,0.16379 -0.1647,0.30878 -0.2891,0.43139 l -3.3759,3.37499 c -0.2506,0.2506 -0.5835,0.38932 -0.938,0.38932 -0.3535,0 -0.6873,-0.13783 -0.9379,-0.38842 -0.5182,-0.51731 -0.5182,-1.36038 0,-1.87679 l 1.1134,-1.11336 h -5.6053 v 5.60709 l 1.1133,-1.11337 c 0.2497,-0.25059 0.5827,-0.38932 0.9371,-0.38932 0.3544,0 0.6882,0.13783 0.9388,0.38843 0.2506,0.25059 0.3893,0.58442 0.3893,0.93884 0,0.35441 -0.1378,0.68824 -0.3884,0.93795 l -3.3786,3.37767 c -0.1279,0.1253 -0.2711,0.22017 -0.4305,0.2864 -0.1619,0.0698 -0.3329,0.10382 -0.5065,0.10382 z"
         id="path767" />
    </g>
  </g>
</svg>
